<svg width="480" height="320" viewBox="0 0 480 320" fill="none" xmlns="http://www.w3.org/2000/svg">
<g clip-path="url(#clip0_738_315)">
<path d="M72.6449 134.501C79.227 129.312 87.3587 126.472 95.7446 126.433C107.907 138.471 119.962 150.638 132.06 162.697H114.138C106.037 154.586 97.8935 146.625 89.8354 138.385C89.0618 137.72 88.4387 136.797 87.4502 136.518C83.8945 136.719 80.4149 137.627 77.2156 139.189C74.0163 140.752 71.1619 142.937 68.8201 145.616C76.126 142.076 84.4849 143.471 92.3065 143.471C94.7562 145.445 96.7976 147.869 99.0538 150.08C90.4586 150.08 81.8633 149.951 73.2681 150.187C70.2455 150.584 67.4723 152.071 65.47 154.367C63.4678 156.663 62.3743 159.61 62.3951 162.654H59C59.0417 157.245 60.2877 151.912 62.6477 147.043C65.0076 142.174 68.4225 137.89 72.6449 134.501Z" fill="#0033A0"/>
<path d="M114.137 126.518C127.459 126.518 140.782 126.518 154.126 126.518C156.506 126.476 158.845 127.141 160.846 128.429C162.847 129.716 164.419 131.568 165.364 133.75C168.931 141.089 162.743 150.337 154.62 150.23C158.918 154.414 163.001 158.62 167.212 162.783C161.196 162.633 155.501 162.998 149.356 162.783C145.058 158.835 140.76 154.2 136.613 150.208C131.8 150.208 126.965 150.208 122.152 150.208C119.358 147.698 116.801 144.951 114.094 142.355C114.094 137.055 114.094 131.797 114.137 126.518ZM120.927 143.385C130.059 143.578 139.17 143.235 148.281 143.492C150.43 143.492 153.052 143.728 154.191 141.582C154.471 141.032 154.6 140.417 154.563 139.8C154.527 139.183 154.326 138.588 153.983 138.074C153.639 137.56 153.165 137.148 152.608 136.878C152.052 136.608 151.434 136.491 150.817 136.54C140.868 136.54 130.94 136.54 120.991 136.54C120.927 138.771 120.905 141.067 120.927 143.385Z" fill="#0033A0"/>
<path d="M169.772 126.519H177.508C186.619 135.638 195.795 144.737 204.884 153.878C201.876 156.839 198.889 159.815 195.923 162.805C189.477 156.367 183.031 149.93 176.584 143.492C176.584 149.887 176.584 156.281 176.584 162.676H169.772C169.758 150.631 169.758 138.578 169.772 126.519Z" fill="#0033A0"/>
<path d="M197.168 143.664C202.905 137.977 208.621 132.248 214.358 126.497H222.094C222.094 138.557 222.094 150.616 222.094 162.676C218.183 162.676 214.251 162.676 210.34 162.676C210.34 157.934 210.34 153.191 210.34 148.427C208.943 149.801 207.568 151.217 206.214 152.719C203.077 149.758 200.155 146.625 197.168 143.664Z" fill="#0033A0"/>
<path d="M225.488 138.385C225.507 135.342 226.694 132.421 228.805 130.225C230.915 128.03 233.789 126.726 236.834 126.583C250.457 126.433 264.081 126.583 277.661 126.583C277.962 129.909 277.855 133.235 277.855 136.583C265.843 136.583 253.831 136.583 241.819 136.583C241.014 136.442 240.184 136.555 239.445 136.905C238.707 137.254 238.094 137.824 237.693 138.536C237.421 139.07 237.298 139.668 237.336 140.267C237.374 140.865 237.573 141.443 237.911 141.938C238.249 142.434 238.715 142.83 239.258 143.084C239.802 143.339 240.405 143.443 241.002 143.385C253.186 143.729 265.413 143.385 277.532 143.557C277.869 145.685 277.97 147.844 277.833 149.994C264.94 150.488 252.047 149.994 239.154 150.252C238.789 150.228 238.424 150.313 238.106 150.495C237.787 150.677 237.53 150.948 237.365 151.275C237.2 151.602 237.135 151.971 237.178 152.334C237.221 152.698 237.371 153.041 237.607 153.32C238.252 154.458 239.756 153.943 240.852 154.114C253.1 154.114 265.327 154.114 277.554 154.114C277.79 157.011 277.747 159.908 277.726 162.698C263.479 162.698 249.254 162.698 235.029 162.698C232.965 162.688 230.959 162.024 229.298 160.801C227.637 159.579 226.408 157.861 225.789 155.895C225.296 154.203 225.255 152.412 225.67 150.7C226.085 148.987 226.941 147.412 228.153 146.132C226.485 143.886 225.554 141.18 225.488 138.385Z" fill="#0033A0"/>
<path d="M281.293 126.519C283.828 126.519 286.364 126.519 288.899 126.519C301.148 138.471 313.159 150.659 325.279 162.74C319.241 162.74 313.202 162.74 307.164 162.74C300.847 156.389 294.508 150.058 288.147 143.75C288.147 150.08 288.147 156.431 288.147 162.762H281.293C281.293 150.638 281.25 138.578 281.293 126.519Z" fill="#0033A0"/>
<path d="M313.163 148.127C313.163 140.896 313.034 133.686 313.163 126.476C317.031 126.476 320.92 126.476 324.788 126.476C324.788 137.605 324.788 148.742 324.788 159.886C321.156 155.916 317.074 152.054 313.163 148.127Z" fill="#0033A0"/>
<path d="M330.052 126.519C334.027 126.519 337.981 126.519 341.935 126.519C341.935 138.557 341.935 150.595 341.935 162.633H330.073C330.052 150.638 330.03 138.578 330.052 126.519Z" fill="#0033A0"/>
<path d="M371.867 143.428H380.462C382.611 145.574 384.889 147.848 387.059 150.101H371.867C371.889 147.913 371.867 145.659 371.867 143.428Z" fill="#0033A0"/>
<path d="M383.836 126.476C375.877 126.48 368.128 129.029 361.725 133.75C357.343 137.006 353.747 141.203 351.203 146.031C348.66 150.858 347.233 156.194 347.027 161.646V161.989C347.027 161.989 347.027 162.182 347.027 162.268V162.869H348.102C348.424 162.89 348.747 162.89 349.069 162.869H350.337C350.37 160.853 350.854 158.871 351.754 157.066C352.654 155.262 353.946 153.681 355.537 152.44C359.684 149.179 365.249 150.294 370.127 150.144C370.127 147.848 370.127 145.552 370.127 143.256C365.701 143.406 361.102 143.406 357.062 145.552C359.407 142.846 362.276 140.641 365.496 139.07C368.716 137.499 372.221 136.594 375.8 136.411C384.674 145.123 393.377 153.985 402.23 162.697C408.161 162.697 414.092 162.697 420.022 162.697C407.989 150.573 395.87 138.557 383.836 126.476Z" fill="#0033A0"/>
<text fill="#0033A0" xml:space="preserve" style="white-space: pre" font-family="Yekan Bakh" font-size="5.42" font-weight="bold" letter-spacing="0em"><tspan x="88.4805" y="181.779">AIRCOMPANY</tspan></text>
<path d="M364.605 126.54H346.941V133.106H355.236C357.945 130.381 361.117 128.158 364.605 126.54Z" fill="#DA0011"/>
<path d="M355.15 133.106H346.941V138.922H350.38C351.72 136.791 353.322 134.838 355.15 133.106Z" fill="#0033A0"/>
<path d="M350.294 138.922H346.941V144.844C347.848 142.759 348.972 140.774 350.294 138.922Z" fill="#F1A300"/>
</g>
<defs>
<clipPath id="clip0_738_315">
<rect width="361" height="103" fill="white" transform="translate(59 108)"/>
</clipPath>
</defs>
</svg>
