<svg width="480" height="320" viewBox="0 0 480 320" fill="none" xmlns="http://www.w3.org/2000/svg">
<path d="M309.572 166.341H253.387L314.385 125.48L55 171.673L352.293 71L309.572 166.341Z" fill="#0067B0"/>
<path d="M115.527 204.921H111.286C111.097 200.84 109.538 197.617 107.28 195.399C105.835 193.979 103.214 190.935 93.1685 190.91C77.6782 190.876 70.7573 205.844 70.7274 215.848C70.7077 224.11 74.9326 243.831 96.697 243.94C102.915 243.975 110.09 241.992 115.272 238.879L115.277 243.348C109.049 246.806 99.5221 249.092 92.8206 249.092C82.7361 249.092 73.0097 246.606 65.9393 240.747C58.7717 234.882 55 226.551 55 216.696C55 196.173 74.8585 185.55 92.0678 185.674C99.6159 185.724 106.393 187.533 113.667 189.516C114.848 189.835 114.983 189.92 115.541 190.128L115.527 204.921ZM150.25 203.412L140.813 225.375H159.702L150.25 203.412ZM161.273 247.498V245.021C163.584 245.07 163.245 245.032 165.468 245.011C166.803 244.996 167.61 243.67 166.509 241.03L161.681 229.723H138.931C138.463 230.885 133.495 241.772 133.161 242.635C132.523 244.303 134.172 244.976 135.717 245.011C137.048 245.04 138.144 245.031 139.743 245.021V247.498H119.684V244.852C121.492 244.871 121.891 244.852 123.784 244.882C125.872 244.917 126.305 243.317 127.721 240.208L133.64 227.347L144.96 202.39C145.623 200.965 147.601 196.441 148.169 195.015C148.643 194.129 149.773 191.463 150.148 190.576C150.526 189.689 151.658 186.934 151.946 186.132H156.849L181.428 240.388C182.843 243.587 183.74 244.867 185.967 244.887C186.69 244.892 188.848 244.852 190.531 244.852V247.498H161.273ZM218.552 214.672C223.146 214.703 230.988 214.648 232.603 214.672C234.875 214.703 237.047 213.626 237.038 210.797C237.027 209.057 237.087 207.323 237.038 206.093H240.525V225.589H236.938C236.898 223.602 236.938 223.073 236.938 222.231C236.978 218.933 235.433 218.584 232.738 218.499L218.592 218.519L218.542 243.298H243.644C244.87 243.298 246.703 242.033 246.703 239.804L246.738 232.944H250.131L250.101 247.488L196.509 247.498V245.555C198.402 245.564 198.253 245.515 199.558 245.53C201.92 245.555 204.242 243.173 204.242 239.979V194.259C204.237 190.935 201.721 188.997 199.399 188.962C198.173 188.942 197.456 188.887 195.752 188.962V186.58H248.567L248.587 200.641H245.667C245.637 197.97 245.648 197.313 245.656 194.911C245.656 192.429 243.255 190.74 240.589 190.745L218.571 190.736L218.552 214.672Z" fill="#231F20"/>
</svg>
